<svg xmlns="http://www.w3.org/2000/svg" xmlns:xlink="http://www.w3.org/1999/xlink" width="575" height="279" fill="none" xmlns:v="https://vecta.io/nano"><path d="M157.3 176.76h25.293v44.433H157.3V274H99.717v-52.808H3.5L.083 185.987 99.717 25.685v-.513H157.3V176.76zm-102.37 0h44.775v-76.563l-3.6 5.8L54.94 176.76zm479.382 0h25.292v44.433h-25.292V274H476.72v-52.808h-96.216l-3.418-35.205L476.72 25.685v-.513h57.593V176.76zm-102.37 0h44.776v-76.563l-3.6 5.8-41.187 70.752z" fill="#469ffa"/><g clip-path="url(#A)"><g fill-rule="evenodd"><path d="M257.938 151.82c-13.525 4.363-25.62 9.85-34.042 20.477-3.218 4.08-4.62 9.603.223 8.633-6.973 13.037-9.127 28.002-4.197 42.21 1.51 4.4 4.177 6.812 6.683 2.936 4.017 10.32 6.61 21.238-.757 26.618-7.553 5.516-10.957 6.462-5.606 10.964 12.888 10.823 29.774 13.956 46.386 13.17 17.228-.824 28.08-4.43 42.247-13.232-1.213 6.72 3.44 4.383 9.355-.562 11.15-9.316 16.347-14.876 20.76-28.225.237 6.513 3.705 4.597 5.723.867 13.93-25.746-6.787-64.22-19.967-86.125-8.064 22.058-57.548 21.765-66.807 2.266" fill="#fff"/><g fill="#cfcfce"><path d="M218.244 258.503c-1.177 1.5-.717 2.87 2 5.156 12.886 10.823 29.773 13.962 46.378 13.17 17.23-.823 28.08-4.43 42.256-13.23-1.214 6.722 3.43 4.382 9.354-.562 11.143-9.316 16.348-14.875 20.76-28.23.23 6.52 3.704 4.602 5.72.872 9.4-17.385 3.024-40.534-6.162-60.504a240.42 240.42 0 0 1 3.797 34.1c.18 5.283-1.245 21.427-5.922 7.894-6.267 14.576-10.775 23.45-22.64 34.005-3.17 2.846-7.94 2.667-6.972-3.958-25.53 26.986-59.327 27.437-88.568 11.287m38.04-30.51c.35-23.915 3.112-27.324 15.078-42.045-18.273 13.4-17.45 24.547-15.078 42.045zm-4.924 20.098c19.37-11 11.304-39.28 24.878-55.74-17.6 16.514-8.226 39.535-24.878 55.74zm46.314-59.216c4.608 13.52 1.856 28.275-1.923 38.974 10.384-14.037 7.387-29.676 1.923-38.974z"/><path d="M239.342 206.535c1.74-10.257 10.633-18.715 18.68-24.224-15.43 5.32-19.534 16.38-18.68 24.224z"/></g><path d="M327.574 106.08l5.166 3.68c-.12 7.716-2.356 20.745 3.037 25.21 2.783 2.274 5.853.476 8.603 2.07 6.015 3.45-2.742 12.256-7.414 11.88-1.786 9.023-14.844 5.307-15.7 2.317l-60.798-7.944c-6.18 1.385-12.392 1.6-14.352-4.197a4.8 4.8 0 0 1-.109-3.543c.418-1.15 1.26-2.1 2.353-2.65 6.8-3.734 8.683-29.2 9.917-36.965l69.297 10.142z" fill="#fff"/><path d="M327.637 105.015l5.203 3.06-.182 4.155c-22.685-1.485-49.5-3.79-75.274-9.235l1.033-7.265 69.22 9.284z" fill="#afafad"/><g fill="#cfcfce"><path d="M262.447 143.537l-1.976-.246c-5.9 1.315-11.812 1.6-14.048-3.44 6.426-.954 7.3-2.836 12.097-13.248l3.927 16.934zm82.193.937c-2.028 2.556-5.363 4.635-7.676 4.45-1.787 9.022-14.843 5.307-15.7 2.3l-.75-.113 1.524-17.24 6.013-7.875c2.578 12.626 8.458 17.754 16.588 18.468"/></g><path d="M321.633 151.538l-13.495 12.37-24.622 4.988-28.628-4.45c.395-20.444 1.345-39.786 3.565-59.76 1.776-15.82 11.923-20.464 24.267-20.594 26.15-.313 45.077 7.4 45.375 20.895.318 13.524-2.73 28.395-6.46 46.548" fill="#ffc88a"/><g fill="#ffa05d"><path d="M311.1 156.14c-5.586-6.627 2.476-24.326 11.9-17.598-8.772-1.5-14.183 7.348-11.9 17.598zm-48.35-5.976c4.842-4.142 1.06-17.974-6.568-14.2 6.567-.042 9.466 7 6.568 14.2z"/></g><path d="M258.67 103.298c2.36-14.65 12.193-19.043 24.044-19.194 26.158-.363 45.077 7.477 45.352 21.248.05 2.17.01 4.346-.1 6.58-21.252-1.47-45.67-3.78-69.286-8.633z" fill="#f19764"/><path d="M326.138 145.777a10.19 10.19 0 0 0-5.533.885c-2.886 1.168-4.34 1.41-8.19.568-12.69-2.768-18.204-.55-31.597 5.34-3.756-7.423-18.09-10.927-26.608-11.236-.92-.045-1.793-.04-2.564-.02a7.48 7.48 0 0 1-3.189-.335c-1.026-.34-1.967-.898-2.76-1.635-2.066-1.73-4.74-1.973-5.36 2.207-2.47 16.17 22.592 32.77 40.433 27.79 15.487 5.984 38.984-2.927 46.835-15.993 2.507-4.18 1.52-7.017-1.47-7.565" fill="#fff"/><path d="M286.568 93.175c-7.068 23.394-9.495 41.91-8.972 66.26l15.187-14.068-12.08 5.738c.8-19.41 2.77-38.753 5.866-57.93z" fill="#ffa05d"/><path d="M225.603 91.342c47.157 16.7 107.054 17.578 139.894 20.082l-35.06-12.58c-2.14-28.263-6.817-52.646 3.092-78.396 1.62-4.19 2.337-5.464 5.14-7.237 3.27-2.05 1.914-4.83-1.8-4.792-7.786.118-13.294 1.418-21.197 4.78-32.716 13.95-45.83 39.28-54.795 76.676l-35.273 1.466z" fill="#3d4347"/><path d="M329.76 109.156l35.736 2.266-35.057-12.58c-2.146-28.262-6.816-52.645 3.088-78.395 1.625-4.19 2.347-5.464 5.143-7.237a4.95 4.95 0 0 0 1.117-.904c-16.344.354-20.546 33.23-20.315 53.847.117 10.105 3.473 23.6-2.284 32.636 8.474 3.248 10.928 3.753 12.574 10.368" fill="#21292b"/><g fill="#57676f"><path d="M254.16 90.167l-22.174.908c16.688 6.04 36.785 10.698 51.43 11.694 8.273.56 6.634-3.312.426-4.072-10.557-1.312-19.956-4.6-29.682-8.53zm85.965-80.57a3.99 3.99 0 0 0-1.492-.966 3.97 3.97 0 0 0-1.763-.219c-7.787.124-13.295 1.425-21.203 4.785-29.664 12.64-43.203 34.652-52.175 66.513 6.97 6.497 13.337 3.407 16.72-5.767 6.178-16.82 11.266-31.508 25.752-46.167 10.9-11.06 20.295-16.168 34.16-18.18z"/></g><path d="M312.204 111.89c-3.06-1.37-5.694-1.02-9.3-.056-3.85 1.022-5.7.676-6.38-1.354-1.265-3.686.84-5.602 3.727-6.44 5.525-1.578 12.044-1.36 15.647 1.46 2.884 2.254 2.883 4.63 2.08 5.924-1.014 1.638-2.273 2.065-5.772.466" fill="#fff"/><g fill="#ffa05d"><path d="M299.223 121.645c-2.67 8.25 7.754 17.857 13.92 8.083-7.546 4.702-13.277-3.582-13.92-8.083zM271.38 119.4c.725 4.786-5.883 9.163-8.418 3.22 3.772 3.254 7.638-.803 8.418-3.22z"/></g><path d="M273.495 107.217c-2.086-.922-3.862-.698-6.347-.028-2.623.702-3.886.46-4.36-.918-.86-2.533.576-3.846 2.553-4.4 3.762-1.103 8.225-.942 10.696.987 1.972 1.535 1.962 3.173 1.42 4.064-.704 1.094-1.55 1.386-3.96.298" fill="#fff"/><g fill="#ffc88a"><path d="M324.047 119.58c9.538-1.917 14.9-1.987 14.943 4.725.063 10.624-9.787 5.36-16.057 3.288l1.114-8.013zm-64.222-5.422c-7.048-2.652-11.158-3.367-12.014 1.794-1.358 8.1 6.838 5.277 11.876 4.474l.138-6.268z"/></g><g fill="#ffa05d"><path d="M326.34 125.116c2.8-2.708 8.007-5.822 10.695.086-4.414-1.77-6.082-1.452-10.695-.086zm-70.96-6.916c-1.328-3.04-4.07-6.798-6.466-1.298 2.894-1.208 3.87-.653 6.466 1.298z"/></g><g fill="#fff"><path d="M328.95 117.197l-.835-4.976c-2.18 1.883-4.044 4.105-5.52 6.58-1.552 2.553-2.2 4.614-.725 5.783 5.16 4.045 5.886-4.715 7.076-7.4m-72.653-5.85l1.382-4.996a35.21 35.21 0 0 1 1.922 5.987c.382 1.9.444 3.358-.237 4.047-2.33 2.334-2.838-3.115-3.067-5.038z"/></g></g><path d="M259.394 90.124c-.253-.062-.49-.174-.698-.33s-.38-.355-.51-.58-.208-.477-.235-.736a1.89 1.89 0 0 1 .451-1.444c.17-.197.378-.357.613-.47a1.9 1.9 0 0 1 1.511-.063c11.396 3.694 23.092 6.387 34.956 8.047a209.83 209.83 0 0 0 35.89 1.732 1.91 1.91 0 0 1 1.94 1.857 1.91 1.91 0 0 1-1.834 1.961c-12.195.432-24.404-.17-36.497-1.798-12.078-1.685-23.986-4.42-35.6-8.174" fill="#cda35a"/><g fill="#9f7333"><path d="M263.008 87.288l2.3.672a7.74 7.74 0 0 1 1.947 4.53l-2.195-.626a9 9 0 0 1-2.04-4.578m10.856 3.04l2.33.565c1.05 1.215 1.695 2.73 1.84 4.33l-2.138-.485a8.56 8.56 0 0 1-2.032-4.409zm10.15 2.285l2.44.463a7.7 7.7 0 0 1 1.652 4.157l-1.935-.335a7.73 7.73 0 0 1-2.158-4.286zm10.716 1.81l.74.117 1.58.197a7.67 7.67 0 0 1 1.728 4.07l-2.058-.258c-1.055-1.147-1.747-2.58-2-4.12m10.307 1.186l2.168.18c1 1.085 1.66 2.46 1.855 3.93l-2.195-.136c-.955-1.137-1.586-2.5-1.828-3.975zm10.82.657l2.142.073c.985 1.06 1.62 2.4 1.816 3.835a56.82 56.82 0 0 1-2.15-.051 7.94 7.94 0 0 1-1.808-3.853m10.326.124l1.842-.02a6.89 6.89 0 0 1 2.09 3.762l-2.367.054a9.21 9.21 0 0 1-1.565-3.791"/></g><g fill-rule="evenodd" fill="#cfcfce"><path d="M297.714 154.507c3.503 5.82 3.2 10.333 1.1 14.36 6.703-4.32 3.632-11.33-1.1-14.36zm5.5-3.102c3.85 3.667 4.894 7.282 4.686 10.96 3.075-5.057-.83-9.768-4.686-10.96zM262.6 146.28c-4.415 3-6.023 6.4-6.375 10.066-2.23-5.476 2.37-9.5 6.375-10.066z"/></g><path d="M267.975 120.47c1.848.148 3.506-1.73 3.704-4.196s-1.14-4.585-2.987-4.733-3.506 1.73-3.704 4.195 1.14 4.585 2.987 4.734z" fill="#21292b"/><path d="M269.55 118.347c1.078.087 2.045-1.01 2.16-2.447s-.665-2.674-1.743-2.76-2.045 1.01-2.16 2.448.665 2.674 1.743 2.76z" fill="#fff"/><path d="M305.435 125.724c2.3.185 4.383-2.163 4.63-5.245s-1.424-5.73-3.733-5.916-4.383 2.162-4.63 5.244 1.424 5.73 3.734 5.917z" fill="#21292b"/><path d="M304.65 121.542c1.386.11 2.63-1.298 2.778-3.147s-.854-3.44-2.24-3.55-2.63 1.297-2.778 3.147.854 3.438 2.24 3.55z" fill="#fff"/><path d="M249.103 166.85s38.517 1.485 64.23 12.03c0 0-20.932-18.75-64.23-12.03z" fill="#21292b"/><g fill="#fff"><path opacity=".9" d="M204.118 91.837l3.627 11.965a2.51 2.51 0 0 0 .589.936c.264.264.583.465.935.59l11.956 3.642-11.956 3.64c-.352.123-.673.323-.937.588a2.49 2.49 0 0 0-.587.937l-3.627 11.857-3.638-11.857c-.12-.354-.32-.675-.585-.94a2.46 2.46 0 0 0-.939-.585L187 108.97l11.956-3.642a2.46 2.46 0 0 0 .939-.585c.264-.265.464-.586.585-.94l3.638-11.965z"/><use xlink:href="#B" opacity=".9"/><path opacity=".25" d="M352.467 64.858l2.894 9.542a1.96 1.96 0 0 0 .468.748 1.97 1.97 0 0 0 .748.469l9.534 2.91-9.534 2.91a1.97 1.97 0 0 0-.748.469 1.96 1.96 0 0 0-.468.748l-2.894 9.454-2.91-9.454a1.96 1.96 0 0 0-.468-.748 1.97 1.97 0 0 0-.748-.469l-9.534-2.91 9.534-2.91a1.97 1.97 0 0 0 .748-.469 1.96 1.96 0 0 0 .468-.748l2.91-9.542z"/><use xlink:href="#B" opacity=".9"/></g></g><path d="M102.005 0l5.724 18.57a3.9 3.9 0 0 0 .932 1.452c.416.4.92.723 1.475.917L129 26.586l-18.864 5.646c-.558.2-1.065.5-1.482.9s-.733.9-.925 1.458L102.005 53 96.27 34.598a3.78 3.78 0 0 0-.923-1.461 3.86 3.86 0 0 0-1.484-.909L75 26.586l18.865-5.646a3.86 3.86 0 0 0 1.484-.909 3.78 3.78 0 0 0 .923-1.461L102.005 0zm456.998 162l3.392 10.863a2.29 2.29 0 0 0 .552.849c.247.24.545.423.874.536L575 177.55l-11.18 3.303c-.33.1-.63.292-.878.532a2.23 2.23 0 0 0-.548.853L559.003 193l-3.398-10.764a2.22 2.22 0 0 0-.547-.854 2.29 2.29 0 0 0-.879-.531l-11.18-3.3 11.18-3.302c.332-.1.632-.3.88-.53a2.22 2.22 0 0 0 .547-.854L559.003 162z" fill="#fff"/><defs><clipPath id="A"><path fill="#fff" transform="translate(187 5)" d="M0 0h210v274H0z"/></clipPath><path id="B" d="M364.145 226.73l5.37 17.713c.185.52.483.994.874 1.385s.863.7 1.384.875l17.698 5.384-17.698 5.385c-.524.18-1 .477-1.4.87s-.688.867-.868 1.39l-5.37 17.548-5.38-17.552c-.178-.524-.474-1-.866-1.393s-.867-.688-1.392-.866l-17.698-5.382 17.7-5.384a3.61 3.61 0 0 0 1.392-.867c.392-.392.688-.868.866-1.393l5.38-17.713z"/></defs></svg>