<svg xmlns="http://www.w3.org/2000/svg" width="1920" height="838" fill="none" xmlns:v="https://vecta.io/nano"><path fill-rule="evenodd" d="M419.58 82.114L284.335 0H0v405.104c0-28.79.58-52.363 1.548-52.363.4 0 26.933 1.44 69.317 3.74l.063.003.082.004.633.035 493.915 26.818 138.247 7.706c18.563 1.36 76.955 4.535 129.547 7.028l101.318 6.346c3.093.91-96.483 7.028-221.4 13.828l-235.697 12.695c-4.834.452-20.493 1.587-34.805 2.266l-45.437 2.493-208.157 11.028-169.268 9.374L0 457.466V838h238.068l677.46-411.156c13.922-8.385 26.102-15.412 27.058-15.397 1.16 0-4.64 4.984-12.568 11.108L377.63 838H545.4l379.227-405.465c21.46-22.895 29.388-29.468 15.852-12.695-3.99 4.883-56.892 72.947-122.214 156.992L615.66 838h102.573l212.185-388.692 22.237-38.99c.58 0-7.927 20.175-18.756 44.656l-26.88 60.88L764.99 838h75.542l8.682-32.03 38.272-140.645 45.632-168.417 21.66-77.545c.58 0 .388 3.4-.193 7.254-1.16 7.707-41.572 225.09-64.194 345.23l-8.86 47.42L878.03 838h65.583l8.072-205.1 9.664-209.008c.97 0 1.548 4.08 1.548 8.84 0 11.108 12.762 340.233 15.47 399.18l.283 6.08h65.8l-3.24-17.398-73.67-396.685c-.78-4.307-.967-7.48-.4-6.803.8.95 18.687 65.897 49.55 179.675L1082.06 838h75.8l-59.23-134.133-109.047-248.213c-10.635-24.255-18.18-42.605-16.63-40.803s22.043 38.547 45.447 81.6L1204.9 838h103.02L991.324 430.027c-10.442-13.362-18.563-24.242-17.98-24.242 1.156 0 6.57 5.667 222.735 236.878L1378.72 838h168.97l-458.14-344.455-112.14-85.005c-2.715-3.17 103.63 60.748 334.49 201.292l61.87 37.4 160.5 97.493 72.98 44.2 21.04 12.8 6.65 4.042v.004L1688 838h232V701.832c-.01 30.252-.6 54.77-1.35 54.77-.97 0-32.87-11.78-71.16-26.07l-787.9-294.456c-45.25-16.773-81.018-30.6-79.466-30.828 2.7 0 205.726 51.456 329.846 83.87L1920 645.528V0h-291.98l-216.16 131.063L1300.3 198.9l-151.78 91.802-171.302 102.686c-.193-.446 80.052-61.428 178.662-135.552L1498.8 0h-155.35L1055.7 307.658c-79.078 84.552-91.065 97.028-80.045 82.738l164.155-211.942L1278.43 0h-95.12L987.456 358.66c-19.14 35.135-23.975 41.255-12.568 15.867l28.612-64.603 63.8-145.073c4.06-8.842 16.63-37.4 28.04-63.47L1139.9 0h-70.07L967.344 377.473c-6.39 23.576-3.868 6.12 9.28-63.243L1035 0h-60.954L959.03 384.5c0 3.627-.387 6.122-.966 5.44s-3.48-66.872-6.767-147.115L941.514 0h-60.82l29.045 155.788 42.924 235.97c-.203.454-7.357-24.482-15.672-55.3l-44.665-164.793L845.732 0H775.53l109.063 247.578 63.227 146.216c-1.936-2.266-21.656-38.08-192.775-351.348L731.9 0h-95.582l35.593 45.845L943.573 398.1C938.613 393.12 781.34 225.28 570.558 0H414.3l487.304 366.368c22.043 16.548 40.024 30.6 40.024 31.055 0 1.133-46.4-26.523-140.176-83.645L608.098 196.586c-13.734-8.615-98.608-60.07-188.518-114.473zM0 761.305l.385-55.99.58-56.215 129.526-33.3 708.663-182.034c84.69-21.76 100.737-25.614 98.417-23.12-.385.45-52.98 20.4-116.785 43.974L0 761.305zm0-712.86L46.798 65.9l583.214 217.89 245.88 91.748c60.327 22.667 75.6 29.24 51.82 22.894-4.672-1.29-46.842-12.08-103.885-26.677l-.044-.012-.03-.007-.185-.048-75.286-19.272L.97 160.422l-.58-55.988L0 48.446zm1744.05 61.243l147.9-55.3c13.92-5.44 25.72-9.745 26.7-9.975.77-.225 1.16 24.936.96 55.764l-.58 55.988-98.6 25.615-838.185 215.117c-17.402 4.53 12.568-7.263 93.775-37.63L1571 174.518l173.05-64.83zm128.58 241.736c16.05-.906 29.4-1.812 29.77-2.266a29.9 29.9 0 0 1 9.28-.906h8.32v104.28h-6.2c-6.57 0-327.54-17-361.18-19.04l-497.9-27.212c-7.35-.68-27.26-1.815-44.08-2.72-16.63-.905-30.163-2.038-29.78-2.493s37.13-2.72 81.8-5.213l202.83-11.335 607.13-33.094z" fill="#006ee0"/></svg>