<svg xmlns="http://www.w3.org/2000/svg" width="204" height="47" fill="none" xmlns:v="https://vecta.io/nano"><path d="M147.4 13.52a8.31 8.31 0 0 0-2.839-1.99c-1.075-.456-2.235-.68-3.403-.658a8.28 8.28 0 0 0-3.402.66 8.33 8.33 0 0 0-2.838 1.99 8.84 8.84 0 0 0-1.917 2.932c-.437 1.095-.65 2.267-.627 3.446a9.02 9.02 0 0 0 .627 3.446 8.84 8.84 0 0 0 1.917 2.932c.796.856 1.764 1.533 2.84 2a8.29 8.29 0 0 0 3.404.657 8.31 8.31 0 0 0 3.401-.658 8.3 8.3 0 0 0 2.837-1.988c.83-.84 1.48-1.836 1.918-2.932a8.82 8.82 0 0 0 .627-3.446c.023-1.18-.2-2.35-.628-3.446a8.84 8.84 0 0 0-1.917-2.932h0zm-5.7 19.2l-.543.034a12.77 12.77 0 0 1-9.332-3.7 12.33 12.33 0 0 1-2.849-4.201 12.34 12.34 0 0 1-.915-4.993 12.26 12.26 0 0 1 .916-4.977c.648-1.577 1.618-3.002 2.848-4.182a12.91 12.91 0 0 1 4.292-2.794 12.9 12.9 0 0 1 5.04-.906c1.724-.046 3.44.258 5.043.894a12.76 12.76 0 0 1 4.285 2.806 12.26 12.26 0 0 1 2.851 4.183c.65 1.578.96 3.273.917 4.98a12.7 12.7 0 0 1-2.238 7.4 12.68 12.68 0 0 1-5.973 4.648 3.74 3.74 0 0 0 3.054 1.594 5.37 5.37 0 0 0 2.647-.712 4.99 4.99 0 0 0 1.968-1.867l2.374 3.32a9.54 9.54 0 0 1-3.197 2.39c-1.223.563-2.55.857-3.895.868a8.29 8.29 0 0 1-4.375-1.287c-1.34-.8-2.37-2.032-2.918-3.494m29.515-8.892V13.587h3.97v18.93h-3.97v-3.463c-.624 1.134-1.536 2.083-2.645 2.75a6.89 6.89 0 0 1-3.631.984 7.01 7.01 0 0 1-2.799-.449 7.04 7.04 0 0 1-2.393-1.52 7.59 7.59 0 0 1-1.57-2.63 7.58 7.58 0 0 1-.398-3.036V13.587h3.97v10.38c0 3.5 1.46 5.225 4.342 5.225 1.33.028 2.62-.458 3.6-1.357a5.09 5.09 0 0 0 1.205-1.832 5.1 5.1 0 0 0 .322-2.168m8.615-14.015a2.37 2.37 0 0 1-.558-.804 2.38 2.38 0 0 1-.189-.96c-.007-.33.055-.658.184-.962a2.34 2.34 0 0 1 .563-.801 2.38 2.38 0 0 1 .804-.556c.304-.128.63-.2.96-.187a2.33 2.33 0 0 1 1.764.747 2.4 2.4 0 0 1 .558.803 2.38 2.38 0 0 1 .189.96c.007.33-.056.657-.185.96s-.32.576-.562.8a2.4 2.4 0 0 1-.804.56c-.304.13-.63.193-.96.188a2.33 2.33 0 0 1-1.764-.747m-.273 3.766h3.968v18.93h-3.968v-18.93zm8.345 3.493v-3.426h14.826v3.6l-10.655 11.802h11.2v3.46h-16.08v-3.9l10.347-11.537h-9.637zM49.42 32.52h-4.207V7.65h6.548l7.5 15.606 7.5-15.606h6.513v24.87h-4.2V13.075l-8.65 17.272H58.04l-8.62-17.272V32.52zm40.44-7.058v-1.6h-4.48c-2.883 0-4.3.917-4.3 2.716a2.42 2.42 0 0 0 .247 1.2c.185.378.462.682.805.9.9.537 1.94.797 2.986.745a5.4 5.4 0 0 0 3.325-1.051 3.51 3.51 0 0 0 1.425-2.917v.007zm4 7.05h-3.63v-2.505a7.81 7.81 0 0 1-6.311 2.816 7.17 7.17 0 0 1-4.885-1.662c-.637-.554-1.142-1.244-1.476-2.02a5.66 5.66 0 0 1-.457-2.46 4.64 4.64 0 0 1 2.069-4.173 9.97 9.97 0 0 1 5.6-1.391h5.157v-.712c0-2.5-1.4-3.767-4.206-3.767-1.976.07-3.883.745-5.463 1.934l-1.8-2.545a12.27 12.27 0 0 1 7.838-2.746 8.54 8.54 0 0 1 5.462 1.7c1.425 1.12 2.1 2.884 2.1 5.326l.002 12.204zm7.093-10.207a5.97 5.97 0 0 0 1.425 4 4.82 4.82 0 0 0 1.738 1.296 4.81 4.81 0 0 0 2.13.404 5.07 5.07 0 0 0 3.937-1.628c1.024-1.104 1.572-2.567 1.525-4.072.035-1.523-.5-3.002-1.525-4.138a4.96 4.96 0 0 0-1.78-1.283c-.68-.283-1.415-.436-2.155-.417-.734-.028-1.465.114-2.136.414s-1.263.75-1.732 1.316a6.5 6.5 0 0 0-1.425 4.1l-.002.008zm14.758-8.718v16.488c0 3.36-.917 5.835-2.716 7.532-1.916 1.7-4.422 2.6-6.988 2.5a12.25 12.25 0 0 1-7.735-2.68l1.9-3.02a9.36 9.36 0 0 0 5.6 2.1 6.42 6.42 0 0 0 4.477-1.456c1.118-.983 1.662-2.515 1.662-4.648v-2.408a6.89 6.89 0 0 1-2.545 2.68 6.98 6.98 0 0 1-3.733.983 7.96 7.96 0 0 1-6.174-2.645 9.25 9.25 0 0 1-2.407-6.55 9.4 9.4 0 0 1 2.408-6.547c.776-.862 1.73-1.545 2.796-2.002a8.01 8.01 0 0 1 3.379-.645c1.193-.025 2.374.243 3.44.782a7.28 7.28 0 0 1 2.668 2.306V13.54h3.97v.034h-.001zm4.547 0h3.97v18.93h-3.97v-18.93zM122.26 1.95l1.05 3.462a.72.72 0 0 0 .17.27c.076.076.17.134.27.17l3.46 1.05-3.46 1.052a.71.71 0 0 0-.271.17c-.076.076-.135.17-.17.27l-1.05 3.427-1.053-3.427a.71.71 0 0 0-.17-.272c-.077-.077-.17-.134-.272-.17l-3.46-1.052 3.46-1.053a.69.69 0 0 0 .27-.17.7.7 0 0 0 .17-.271l1.052-3.46zM17.223 6.678C12.657 6.684 8.28 8.5 5.05 11.73S.005 19.335 0 23.9a17.24 17.24 0 0 0 17.223 17.222A17.24 17.24 0 0 0 34.444 23.9c-.005-4.566-1.82-8.943-5.05-12.172a17.24 17.24 0 0 0-12.17-5.05h0zm0 1.956a15.27 15.27 0 0 1 10.795 4.472c2.863 2.862 4.47 6.746 4.47 10.795a15.27 15.27 0 0 1-4.47 10.795c-2.862 2.863-6.746 4.47-10.795 4.47a15.27 15.27 0 0 1-10.795-4.47C3.565 31.834 1.956 27.95 1.956 23.9A15.27 15.27 0 0 1 17.223 8.634" fill="#fff"/><g fill="#9f7333"><path d="M17.445 45.594l-.037-.338a1.19 1.19 0 0 1 .586-.469l.054.4c-.165.182-.37.323-.6.41"/><path d="M18.02 44.98l-.05-.19a1.35 1.35 0 0 1 .51-.573l.12.433a2.79 2.79 0 0 1-.58.329"/></g><g fill-rule="evenodd"><path d="M11.303 25.738c-2.172.723-4.074 2.085-5.46 3.908-.487.73-.648 1.68.155 1.45a8.84 8.84 0 0 0-.136 7.163c.314.72.8 1.1 1.166.4.817 1.683 1.4 3.486.233 4.492-1.2 1.03-1.76 1.236-.8 1.922 2.368 1.523 5.225 2.093 7.997 1.596a13.23 13.23 0 0 0 6.939-2.8c-.113 1.148.64.69 1.57-.22 1.57-1.282 2.668-3.054 3.116-5.032.128 1.093.686.724.976.068 2-4.523-2.013-10.72-4.53-14.23-1.06 3.822-9.403 4.442-11.226 1.284z" fill="#fff"/><g fill="#cfcfce"><path d="M6.06 44.236c-.178.27-.082.493.407.84a11.2 11.2 0 0 0 7.993 1.6 13.23 13.23 0 0 0 6.94-2.8c-.114 1.148.638.7 1.57-.22 1.57-1.283 2.668-3.055 3.116-5.033.127 1.094.687.725.976.07 1.35-3.054-.04-6.866-1.857-10.1a40.34 40.34 0 0 1 1.1 5.7c.1.887.08 3.624-.9 1.4-.6 2.26-1.745 4.336-3.354 6.03-.5.522-1.3.556-1.228-.572-3.936 4.9-9.625 5.422-14.77 3.1m5.993-5.676c-.265-4.03.155-4.642 1.97-7.283-2.9 2.5-2.608 4.37-1.97 7.283m-.558 3.45c3.115-2.112 1.373-6.766 3.437-9.722-2.737 3.022-.85 6.767-3.437 9.722zM18.5 31.44a10.31 10.31 0 0 1 .2 6.587 5.94 5.94 0 0 0 .898-3.324c-.036-1.174-.418-2.308-1.098-3.263"/><path d="M8.91 35.2c.154-1.75 1.538-3.294 2.82-4.33-2.528 1.107-3.07 3.022-2.82 4.33z"/></g><path d="M22.814 17.574l.92.55c.084 1.3-.116 3.524.853 4.2.5.345.993 0 1.478.232 1.06.5-.3 2.1-1.088 2.1-.18 1.543-2.43 1.094-2.614.6l-10.352-.5c-1.023.317-2.066.437-2.475-.512a.81.81 0 0 1 .294-1.073c1.1-.72 1.068-5.033 1.17-6.357l11.813.77z" fill="#fff"/><path d="M22.81 17.396l.918.445a9.9 9.9 0 0 1 .025.7c-4.276.12-8.556-.06-12.807-.538l.076-1.237 11.788.63z" fill="#afafad"/><path d="M12.347 24.76l-.336-.015c-.976.3-1.97.427-2.414-.4 1.07-.25 1.2-.576 1.857-2.394l.893 2.798zm13.86-.954a1.83 1.83 0 0 1-1.233.853c-.177 1.543-2.43 1.094-2.614.6l-.128-.01.023-2.923.907-1.407c.6 2.1 1.665 2.874 3.045 2.885" fill="#cfcfce"/><path d="M22.427 25.532l-2.106 2.313-4.08 1.2-4.884-.37c-.2-3.52-.312-6.855-.208-10.318.085-2.743 1.732-3.68 3.8-3.874 4.4-.415 7.7.65 7.928 2.964a38.24 38.24 0 0 1-.459 8.085" fill="#ffc88a"/><path d="M20.717 26.224c-1.03-1.04.088-4.13 1.765-3.123-1.498-.132-2.3 1.43-1.765 3.123zm-8.23-.354c.76-.763-.065-3.04-1.3-2.3 1.106-.1 1.7 1.052 1.3 2.3z" fill="#ffa05d"/><path d="M11.166 18.036c.2-2.498 1.8-3.375 3.79-3.556 4.4-.415 7.7.65 7.93 2.964l.07 1.11c-3.937.086-7.876-.087-11.8-.517" fill="#f19764"/><path d="M9.302 26.412c1.027 2.1 4.06 4.105 6.482 3.214 2.53.753 6.556-1.077 7.368-3.78-5.37 2.837-12.35 1.974-13.85.566z" fill="#21292b"/><path d="M23.108 24.276c-.322-.013-.64.065-.92.224a1.89 1.89 0 0 1-1.372.204c-2.176-.292-3.074.156-5.256 1.33-.73-1.2-3.192-1.595-4.63-1.53-.155 0-.3.018-.432.03a1.27 1.27 0 0 1-1.029-.251c-.372-.263-.825-.268-.873.444-.2 2.756 4.25 5.21 7.19 4.132 2.7.8 6.53-1.02 7.675-3.326.366-.738.16-1.2-.35-1.254" fill="#fff"/><path d="M15.73 15.955c-.85 3.696-1.057 7.5-.615 11.276l2.37-2.576-1.958 1.132a83.01 83.01 0 0 1 .204-9.832" fill="#ffa05d"/><path d="M5.433 16.47c8.172 2.174 18.275 1.514 23.843 1.49l-6.078-1.644c-.743-4.73-1.86-8.77-.54-13.24a1.93 1.93 0 0 1 .768-1.288c.523-.39.257-.84-.368-.782-1.234.106-2.43.478-3.507 1.09-5.324 2.788-7.2 7.233-8.195 13.65l-5.923.724z" fill="#3d4347"/><path d="M23.224 18.062l6.05-.1-6.077-1.644c-.744-4.73-1.86-8.77-.54-13.24.036-.255.123-.5.255-.722s.307-.414.514-.566c.067-.047.126-.103.176-.167-2.75.28-3.012 5.872-2.694 9.34.156 1.7.9 3.926.057 5.525 1.472.432 1.892.484 2.26 1.575" fill="#21292b"/><path d="M10.23 15.887l-3.724.453a35.19 35.19 0 0 0 8.824 1.273c1.4-.018 1.073-.647.017-.7a19.66 19.66 0 0 1-5.117-1.035M23.622 1.16a.67.67 0 0 0-.564-.155 8.6 8.6 0 0 0-3.508 1.092c-4.827 2.53-6.8 6.418-7.9 11.9 1.262 1 2.293.393 2.74-1.2.813-2.915 1.472-5.457 3.714-8.12a9.3 9.3 0 0 1 5.5-3.516" fill="#57676f"/><path d="M20.302 18.76a2.16 2.16 0 0 0-1.568.116c-.635.224-.95.19-1.093-.142a.78.78 0 0 1-.017-.704.78.78 0 0 1 .558-.43 3.18 3.18 0 0 1 2.656.034c.516.34.548.74.43.97-.15.29-.355.377-.966.156" fill="#fff"/><path d="M18.247 20.577c-.34 1.425 1.548 2.9 2.454 1.172-1.207.893-2.285-.424-2.454-1.172zm-4.717 0c.187.8-.867 1.622-1.375.656.675.497 1.275-.238 1.375-.656z" fill="#ffa05d"/><path d="M13.717 18.497a1.47 1.47 0 0 0-1.07.084c-.432.154-.648.13-.747-.1-.04-.074-.06-.156-.063-.24a.53.53 0 0 1 .208-.435.53.53 0 0 1 .226-.101 2.16 2.16 0 0 1 1.815.022c.353.232.374.508.294.665-.1.194-.243.254-.663.1" fill="#fff"/><path d="M22.402 19.895c1.582-.45 2.484-.536 2.582.593.155 1.788-1.576 1.035-2.66.77l.08-1.364zm-10.895-.045c-1.223-.35-1.926-.417-2 .465-.12 1.38 1.223.8 2.06.593l-.06-1.058z" fill="#ffc88a"/><path d="M22.863 20.795c.435-.494 1.27-1.086 1.8-.13-.3-.1-.604-.155-.914-.133s-.613.112-.886.263m-12.05-.195c-.265-.494-.778-1.085-1.112-.13.47-.243.642-.162 1.107.13" fill="#ffa05d"/><path d="M23.195 19.426l-.207-.826a4.49 4.49 0 0 0-.84 1.182c-.228.45-.3.807-.042.984.924.6.928-.873 1.092-1.34m-12.324-.003l.165-.86c.162.315.296.643.4.982.1.315.12.56.015.685-.356.424-.515-.486-.58-.807z" fill="#fff"/></g><path d="M11.11 15.8a.32.32 0 0 1-.203-.141c-.023-.036-.038-.076-.046-.117a.32.32 0 0 1 .054-.24.32.32 0 0 1 .091-.086c.036-.023.076-.038.117-.045a.32.32 0 0 1 .125.004 34.83 34.83 0 0 0 6 .882 35.51 35.51 0 0 0 6.07-.194c.085-.01.17.017.236.07s.11.132.118.217-.016.17-.07.237-.13.11-.216.118c-2.05.238-4.114.3-6.174.19-2.057-.12-4.1-.42-6.105-.895" fill="#cda35a"/><path d="M11.68 15.282l.4.082a1.3 1.3 0 0 1 .384.737l-.378-.076a1.52 1.52 0 0 1-.406-.743m1.873.365l.4.064a1.3 1.3 0 0 1 .369.7l-.37-.05c-.2-.195-.338-.443-.4-.715m1.742.25l.418.045a1.3 1.3 0 0 1 .334.678l-.33-.03a1.3 1.3 0 0 1-.421-.692m1.83.16l.126.01.274.012a1.29 1.29 0 0 1 .34.66l-.35-.016c-.193-.18-.33-.4-.4-.667m1.75.062h.368a1.21 1.21 0 0 1 .365.638l-.37.006a1.4 1.4 0 0 1-.362-.644m1.83-.036l.362-.017a1.19 1.19 0 0 1 .358.621l-.363.02a1.34 1.34 0 0 1-.357-.625m1.743-.117l.3-.028a1.16 1.16 0 0 1 .4.6l-.395.045c-.15-.18-.258-.4-.315-.617" fill="#9f7333"/><g fill-rule="evenodd"><path d="M18.438 25.62c.288.422.472.905.537 1.4s.01 1.02-.16 1.502a1.84 1.84 0 0 0-.377-2.913m.884-.086a2.24 2.24 0 0 1 .938 1.782 1.27 1.27 0 0 0 .12-.565 1.26 1.26 0 0 0-1.058-1.216m-6.914-.314a2.21 2.21 0 0 0-.935 1.781 1.26 1.26 0 0 1 .935-1.781" fill="#cfcfce"/><path d="M19.458 19.54a.9.9 0 0 1 .9.9.89.89 0 0 1-.065.335.9.9 0 0 0-1.636.076.91.91 0 0 1-.099-.411.9.9 0 0 1 .9-.9m-6.43-.025c.15 0 .294.06.4.166s.166.25.166.4a.57.57 0 0 1-.047.226c-.044-.1-.116-.187-.2-.248a.56.56 0 0 0-.3-.093.58.58 0 0 0-.31.093c-.1.06-.165.147-.2.248a.58.58 0 0 1-.047-.226c0-.15.06-.295.166-.4a.57.57 0 0 1 .4-.166" fill="#21292b"/></g></svg>