<svg width="24" height="21" viewBox="0 0 24 21" fill="none" xmlns="http://www.w3.org/2000/svg">
<path d="M6 3C6 1.34315 4.65685 0 3 0C1.34315 0 0 1.34315 0 3V15C0 16.6569 1.34315 18 3 18C4.65685 18 6 16.6569 6 15V3Z" fill="#FFC88A"/>
<path d="M3 17C2.46957 17 1.96101 16.7893 1.58594 16.4142C1.21086 16.0391 1 15.5304 1 15V13H5V15C5 15.5304 4.78914 16.0391 4.41406 16.4142C4.03899 16.7893 3.53043 17 3 17Z" fill="#FFDEB9"/>
<path fill-rule="evenodd" clip-rule="evenodd" d="M4.35139 1.5408C4.21863 3.13049 1.76336 4.02758 1.40624 1.92965C2.36944 3.26247 3.91791 2.25685 4.35139 1.5408Z" fill="#FFA05D"/>
<path fill-rule="evenodd" clip-rule="evenodd" d="M4.7841 2.6814C4.62903 4.54036 1.75781 5.58828 1.33826 3.13887C2.46475 4.69718 4.27441 3.52198 4.7841 2.6814Z" fill="#FFA05D"/>
<path d="M12 3C12 1.34315 10.6569 0 9 0C7.34315 0 6 1.34315 6 3V18C6 19.6569 7.34315 21 9 21C10.6569 21 12 19.6569 12 18V3Z" fill="#FFC88A"/>
<path fill-rule="evenodd" clip-rule="evenodd" d="M10.8031 1.66173C10.6533 3.46247 7.8713 4.47841 7.46589 2.10194C8.5528 3.61059 10.3115 2.47245 10.8031 1.66173Z" fill="#FFA05D"/>
<path fill-rule="evenodd" clip-rule="evenodd" d="M11.2928 2.95386C11.1166 5.05932 7.86411 6.24832 7.38864 3.47269C8.66562 5.23445 10.7185 3.90277 11.2928 2.95386Z" fill="#FFA05D"/>
<path d="M9 20C8.46957 20 7.96101 19.7893 7.58594 19.4142C7.21086 19.0391 7 18.5304 7 18V16H11V18C11 18.5304 10.7891 19.0391 10.4141 19.4142C10.039 19.7893 9.53043 20 9 20Z" fill="#FFDEB9"/>
<path d="M18 3C18 1.34315 16.6569 0 15 0C13.3431 0 12 1.34315 12 3V16C12 17.6569 13.3431 19 15 19C16.6569 19 18 17.6569 18 16V3Z" fill="#FFC88A"/>
<path fill-rule="evenodd" clip-rule="evenodd" d="M16.8031 1.66173C16.6533 3.46247 13.8713 4.47841 13.4659 2.10194C14.5528 3.61059 16.3115 2.47245 16.8031 1.66173Z" fill="#FFA05D"/>
<path fill-rule="evenodd" clip-rule="evenodd" d="M17.2928 2.95386C17.1166 5.05932 13.8641 6.24832 13.3886 3.47269C14.6656 5.23445 16.7185 3.90277 17.2928 2.95386Z" fill="#FFA05D"/>
<path d="M15 18C14.4696 18 13.961 17.7893 13.5859 17.4142C13.2109 17.0391 13 16.5304 13 16V14H17V16C17 16.5304 16.7891 17.0391 16.4141 17.4142C16.039 17.7893 15.5304 18 15 18Z" fill="#FFDEB9"/>
<path d="M24 3C24 1.34315 22.6569 0 21 0C19.3431 0 18 1.34315 18 3V13C18 14.6569 19.3431 16 21 16C22.6569 16 24 14.6569 24 13V3Z" fill="#FFC88A"/>
<path fill-rule="evenodd" clip-rule="evenodd" d="M22.8031 1.66173C22.6533 3.46247 19.8713 4.47841 19.4659 2.10194C20.5528 3.61059 22.3115 2.47245 22.8031 1.66173Z" fill="#FFA05D"/>
<path fill-rule="evenodd" clip-rule="evenodd" d="M23.2928 2.95386C23.1166 5.05932 19.8641 6.24832 19.3886 3.47269C20.6656 5.23445 22.7185 3.90277 23.2928 2.95386Z" fill="#FFA05D"/>
<path d="M21 15C20.4696 15 19.961 14.7893 19.5859 14.4142C19.2109 14.0391 19 13.5304 19 13V11H23V13C23 13.5304 22.7891 14.0391 22.4141 14.4142C22.039 14.7893 21.5304 15 21 15Z" fill="#FFDEB9"/>
</svg>
