<svg width="124" height="241" viewBox="0 0 124 241" fill="none" xmlns="http://www.w3.org/2000/svg">
<path fill-rule="evenodd" clip-rule="evenodd" d="M32.8698 131.27C21.3698 136.021 11.2028 141.653 4.60083 151.507C2.07383 155.288 1.24081 160.207 5.40081 159.02C0.228814 170.882 -0.599173 184.076 4.69583 196.12C6.32183 199.842 8.81982 201.772 10.7298 198.22C14.9618 206.938 17.9878 216.272 11.9298 221.484C5.72984 226.822 2.82081 227.89 7.80581 231.436C19.8148 239.967 34.7718 241.525 49.2058 239.673C64.1828 237.754 73.3998 233.845 85.1438 225.173C84.5558 231.119 88.4548 228.758 93.2638 224.027C102.344 215.127 106.487 209.912 109.397 197.962C110.063 203.623 112.953 201.713 114.451 198.315C124.804 174.885 104.029 142.796 90.9918 124.615C85.5068 144.415 42.2998 147.625 32.8578 131.266" fill="white"/>
<path fill-rule="evenodd" clip-rule="evenodd" d="M5.70184 227.067C4.78084 228.467 5.28086 229.624 7.80786 231.426C19.8169 239.958 34.7738 241.515 49.2018 239.664C64.1788 237.735 73.3958 233.836 85.1498 225.164C84.5618 231.11 88.4499 228.749 93.2699 224.018C102.34 215.118 106.493 209.904 109.403 197.953C110.059 203.625 112.959 201.705 114.457 198.316C121.441 182.497 114.251 162.75 104.838 145.991C107.438 155.664 109.343 165.51 110.538 175.455C111.067 180.049 110.949 194.222 105.924 182.755C101.477 195.9 98.1658 203.961 88.5468 213.992C85.9808 216.692 81.8078 216.872 82.1898 211.034C61.8158 236.345 32.3519 239.107 5.69986 227.069" fill="#CFCFCE"/>
<path fill-rule="evenodd" clip-rule="evenodd" d="M36.764 197.812C35.393 176.938 37.564 173.765 46.971 160.091C31.965 173.04 33.463 182.717 36.764 197.812Z" fill="#CFCFCE"/>
<path fill-rule="evenodd" clip-rule="evenodd" d="M33.8738 215.671C50.0068 204.73 40.9848 180.624 51.6818 165.324C37.4818 180.957 47.2638 200.371 33.8738 215.671Z" fill="#CFCFCE"/>
<path fill-rule="evenodd" clip-rule="evenodd" d="M70.1358 160.803C75.1018 172.273 73.7358 185.33 71.1938 194.919C79.2648 181.95 75.5528 168.519 70.1358 160.803Z" fill="#CFCFCE"/>
<path fill-rule="evenodd" clip-rule="evenodd" d="M20.4688 180.279C21.2688 171.209 28.4317 163.216 35.0687 157.848C21.9687 163.568 19.1688 173.501 20.4688 180.279Z" fill="#CFCFCE"/>
<path fill-rule="evenodd" clip-rule="evenodd" d="M90.4238 86.5128L95.1938 89.3628C95.6248 96.1018 94.5868 107.621 99.6118 111.128C102.198 112.92 104.754 111.138 107.262 112.328C112.762 114.914 105.724 123.21 101.62 123.21C100.689 131.203 89.0428 128.881 88.0828 126.335L34.4738 123.661C29.1738 125.307 23.7678 125.924 21.6518 121.007C21.1467 120.062 21.0235 118.958 21.3078 117.925C21.5922 116.892 22.2622 116.007 23.1798 115.453C28.8608 111.721 28.7138 89.3879 29.2428 82.5219L90.4238 86.5128Z" fill="white"/>
<path fill-rule="evenodd" clip-rule="evenodd" d="M90.4048 85.5719L95.1648 87.8719C95.2528 88.9489 95.2728 90.2029 95.2918 91.5059C75.3918 91.7999 51.8308 91.6729 28.9588 88.7239C29.1258 86.0599 29.2228 83.7579 29.3508 82.3179L90.4048 85.5719Z" fill="#AFAFAD"/>
<path fill-rule="evenodd" clip-rule="evenodd" d="M36.2178 123.734L34.4738 123.656C29.4198 125.213 24.2738 125.87 21.9738 121.638C27.5178 120.355 28.1448 118.65 31.6028 109.238L36.2178 123.734Z" fill="#CFCFCE"/>
<path fill-rule="evenodd" clip-rule="evenodd" d="M108.016 118.787C106.429 121.157 103.657 123.205 101.63 123.205C100.699 131.198 89.0528 128.876 88.0928 126.32L87.4268 126.271L87.5448 111.128L92.2368 103.84C95.3708 114.683 100.866 118.74 108.017 118.787" fill="#CFCFCE"/>
<path fill-rule="evenodd" clip-rule="evenodd" d="M88.4258 127.73L77.5118 139.71L56.3738 145.901L31.0828 143.991C29.9958 125.762 29.4668 108.484 30.0058 90.5488C30.4468 76.3488 38.9778 71.4878 49.7428 70.4888C72.5358 68.3438 89.5988 73.8488 90.8038 85.8378C92.0278 97.8568 90.4118 111.305 88.4238 127.732" fill="#FFC88A"/>
<path fill-rule="evenodd" clip-rule="evenodd" d="M79.5708 131.315C74.2328 125.928 80.0308 109.932 88.7098 115.133C80.9518 114.447 76.8478 122.538 79.5708 131.315Z" fill="#FFA05D"/>
<path fill-rule="evenodd" clip-rule="evenodd" d="M36.9518 129.489C40.8898 125.542 36.6188 113.738 30.2228 117.578C35.9528 117.088 38.9698 123.034 36.9518 129.489Z" fill="#FFA05D"/>
<path fill-rule="evenodd" clip-rule="evenodd" d="M30.1058 88.9119C31.1338 75.9729 39.4108 71.4569 49.7448 70.4869C72.5448 68.3419 89.6108 73.8469 90.8158 85.8359C91.0158 87.7259 91.1288 89.6269 91.1778 91.5759C72.5178 91.7919 51.0468 91.4759 30.1048 88.9119" fill="#F19764"/>
<path fill-rule="evenodd" clip-rule="evenodd" d="M20.4478 132.285C25.7668 143.177 41.4678 153.55 54.0158 148.937C67.1218 152.837 87.9758 143.364 92.1778 129.357C64.3598 144.05 28.2158 139.573 20.4478 132.286" fill="#21292B"/>
<path fill-rule="evenodd" clip-rule="evenodd" d="M91.9518 121.227C90.2857 121.166 88.635 121.566 87.1818 122.383C84.7428 123.607 83.4988 123.921 80.0818 123.451C68.8078 121.923 64.1548 124.244 52.8818 130.317C49.0818 124.107 36.3278 122.06 28.8738 122.383C28.0738 122.412 27.3068 122.471 26.6308 122.55C25.7013 122.73 24.7439 122.707 23.8241 122.483C22.9043 122.258 22.0439 121.838 21.3018 121.25C19.3818 119.888 17.0308 119.859 16.7768 123.55C15.7578 137.821 38.7868 150.55 54.0078 144.95C67.9458 149.084 87.8208 139.67 93.7568 127.72C95.6668 123.89 94.6088 121.49 91.9568 121.226" fill="white"/>
<path fill-rule="evenodd" clip-rule="evenodd" d="M53.7408 78.1279C49.2158 99.0209 48.3928 115.34 50.5578 136.536L62.8218 123.205L52.6838 129.053C52.0264 112.072 52.3797 95.0669 53.7418 78.1279" fill="#FFA05D"/>
<path fill-rule="evenodd" clip-rule="evenodd" d="M0.406799 80.7918C42.7318 92.0558 95.0568 88.6178 123.894 88.5108L92.4118 79.9988C88.5628 55.4988 82.7738 34.5688 89.6198 11.4228C90.7368 7.65185 91.2748 6.49585 93.5968 4.75285C96.3098 2.73485 94.9288 0.403845 91.6968 0.697845C84.9088 1.34385 80.1968 2.86285 73.5368 6.34985C45.9638 20.8078 36.2958 43.8068 31.0948 77.0498L0.406799 80.7918Z" fill="#3D4347"/>
<path fill-rule="evenodd" clip-rule="evenodd" d="M92.5498 89.0399C104.52 88.9029 115.255 88.5699 123.894 88.5109L92.4218 79.9989C88.5628 55.4989 82.7838 34.5689 89.6218 11.4229C90.7478 7.65187 91.2868 6.49587 93.5988 4.75287C93.945 4.5141 94.2523 4.22335 94.5098 3.89087C80.2678 5.34087 78.9098 34.3049 80.5518 52.2689C81.3648 61.0749 85.2338 72.6039 80.8458 80.8899C88.4758 83.1129 90.6458 83.3899 92.5508 89.0399" fill="#21292B"/>
<path fill-rule="evenodd" clip-rule="evenodd" d="M25.2478 77.7748L5.96082 80.1158C20.9478 84.2098 38.8138 86.8648 51.6608 86.7078C58.9188 86.6198 57.2148 83.3578 51.7488 83.1228C42.4438 82.7308 34.0098 80.5168 25.2428 77.7748" fill="#57676F"/>
<path fill-rule="evenodd" clip-rule="evenodd" d="M94.6158 1.50085C94.2218 1.15486 93.7542 0.903028 93.2485 0.764427C92.7428 0.625827 92.2122 0.604086 91.6968 0.700853C84.9088 1.35685 80.1968 2.87585 73.5268 6.36285C48.5268 19.4629 38.2548 39.6079 32.6618 68.0129C39.2048 73.1849 44.5438 70.0499 46.8448 61.8129C51.0568 46.7189 54.4658 33.5539 66.0828 19.7529C74.8198 9.34085 82.6558 4.22785 94.6158 1.50485" fill="#57676F"/>
<path fill-rule="evenodd" clip-rule="evenodd" d="M77.4258 92.6538C74.6638 91.6738 72.3818 92.1638 69.3058 93.2608C66.0148 94.4168 64.3888 94.2498 63.6438 92.5258C62.2818 89.4008 63.9868 87.5788 66.4438 86.6488C71.1548 84.8858 76.8558 84.6208 80.1958 86.8248C82.8698 88.5878 83.0368 90.6548 82.4288 91.8398C81.6548 93.3398 80.5878 93.7988 77.4238 92.6528" fill="white"/>
<path fill-rule="evenodd" clip-rule="evenodd" d="M66.7788 102.067C65.0258 109.443 74.8008 117.093 79.4928 108.13C73.2338 112.763 67.6508 105.936 66.7788 102.067Z" fill="#FFA05D"/>
<path fill-rule="evenodd" clip-rule="evenodd" d="M42.3198 102.067C43.2898 106.191 37.8198 110.467 35.1988 105.467C38.7248 108.043 41.8108 104.233 42.3198 102.067Z" fill="#FFA05D"/>
<path fill-rule="evenodd" clip-rule="evenodd" d="M43.3088 91.2919C41.4278 90.6359 39.8908 90.9489 37.7648 91.7129C35.5218 92.5059 34.4048 92.3889 33.8958 91.2129C32.9648 89.0679 34.1308 87.8239 35.8158 87.1969C39.0158 85.9729 42.9268 85.7969 45.2158 87.3049C47.0478 88.5049 47.1548 89.9299 46.7438 90.7529C46.2048 91.7529 45.4898 92.0659 43.3058 91.2919" fill="white"/>
<path fill-rule="evenodd" clip-rule="evenodd" d="M88.2968 98.5308C96.4858 96.1898 101.158 95.7588 101.667 101.607C102.467 110.863 93.4978 106.965 87.8848 105.594L88.2968 98.5308Z" fill="#FFC88A"/>
<path fill-rule="evenodd" clip-rule="evenodd" d="M31.8688 98.2959C25.5318 96.4739 21.8978 96.1409 21.5158 100.706C20.8988 107.856 27.8528 104.83 32.1928 103.772L31.8688 98.2959Z" fill="#FFC88A"/>
<path fill-rule="evenodd" clip-rule="evenodd" d="M90.6888 103.194C92.9418 100.637 97.2708 97.5518 100.034 102.518C96.0468 101.284 94.6168 101.676 90.6888 103.194Z" fill="#FFA05D"/>
<path fill-rule="evenodd" clip-rule="evenodd" d="M28.2738 102.136C26.9028 99.5788 24.2478 96.4939 22.5438 101.46C24.9828 100.196 25.8648 100.618 28.2738 102.136Z" fill="#FFA05D"/>
<path fill-rule="evenodd" clip-rule="evenodd" d="M92.4128 96.1009L91.3388 91.8209C89.5675 93.615 88.0957 95.682 86.9798 97.9429C85.8048 100.274 85.3738 102.126 86.7548 103.036C91.5448 106.21 91.5638 98.5199 92.4168 96.1009" fill="white"/>
<path fill-rule="evenodd" clip-rule="evenodd" d="M28.5878 96.0918L29.4398 91.6348C30.2895 93.2621 30.9917 94.9622 31.5378 96.7148C32.0078 98.3508 32.1648 99.6148 31.6158 100.261C29.7548 102.461 28.9318 97.7438 28.5888 96.0878" fill="white"/>
<path d="M29.8118 77.3729C29.3819 77.2754 29.0083 77.0111 28.7732 76.6382C28.5381 76.2653 28.4608 75.8143 28.5583 75.3844C28.6558 74.9544 28.92 74.5809 29.2929 74.3458C29.6658 74.1107 30.1169 74.0334 30.5468 74.1309C40.7509 76.5537 51.147 78.0812 61.6168 78.6959C72.1068 79.2581 82.6257 78.9235 93.0588 77.6959C93.4967 77.6549 93.9332 77.7879 94.274 78.0661C94.6147 78.3443 94.8323 78.7453 94.8799 79.1826C94.9274 79.6199 94.801 80.0583 94.528 80.4032C94.255 80.7481 93.8573 80.9717 93.4208 81.0259C82.8106 82.2551 72.1156 82.5859 61.4498 82.0149C50.7891 81.3874 40.2032 79.8338 29.8118 77.3719" fill="#CDA35A"/>
<path d="M32.7598 74.6408C33.4458 74.7878 34.1308 74.9248 34.8068 75.0618C35.8793 76.076 36.5884 77.4148 36.8248 78.8718C36.1778 78.7448 35.5248 78.6168 34.8658 78.4798C33.8114 77.4272 33.0806 76.0947 32.7598 74.6398" fill="#9F7333"/>
<path d="M42.4668 76.5309C43.1528 76.6389 43.8478 76.7559 44.5338 76.8639C45.5338 77.8505 46.2014 79.1242 46.4438 80.5079C45.8168 80.4299 45.1708 80.3319 44.5438 80.2339C43.5062 79.2289 42.7844 77.943 42.4668 76.5339" fill="#9F7333"/>
<path d="M51.4788 77.8138C52.2038 77.9018 52.9188 77.9708 53.6438 78.0488C54.5538 79.0221 55.1569 80.2419 55.3778 81.5558C54.7998 81.5068 54.2418 81.4478 53.6638 81.3988C52.5771 80.4631 51.8129 79.2087 51.4798 77.8138" fill="#9F7333"/>
<path d="M60.9598 78.6469L61.6158 78.6958C62.0758 78.7248 62.5468 78.7348 63.0068 78.7548C63.931 79.6961 64.555 80.8906 64.7998 82.1869C64.1828 82.1479 63.5758 82.1278 62.9878 82.1088C61.9849 81.1803 61.2793 79.9757 60.9598 78.6469" fill="#9F7333"/>
<path d="M70.0308 78.9599C70.6578 78.9699 71.3038 78.9699 71.9308 78.9699C72.8919 79.8439 73.5532 80.9986 73.8208 82.2699C73.1748 82.2989 72.5478 82.2989 71.9008 82.3089C70.9924 81.3769 70.3469 80.2211 70.0298 78.9589" fill="#9F7333"/>
<path d="M79.5218 78.7738C80.1488 78.7448 80.7758 78.7249 81.3928 78.6859C82.3279 79.5391 82.9747 80.6619 83.2438 81.8988C82.6168 81.9478 81.9798 81.9769 81.3628 82.0069C80.4634 81.1194 79.8264 80.0011 79.5218 78.7748" fill="#9F7333"/>
<path d="M88.5428 78.1668C89.0618 78.1278 89.6108 78.0668 90.1488 78.0198C91.159 78.8168 91.8895 79.9143 92.2348 81.1538C91.5348 81.2228 90.8638 81.2908 90.1778 81.3688C89.3956 80.4409 88.836 79.3463 88.5418 78.1688" fill="#9F7333"/>
<path fill-rule="evenodd" clip-rule="evenodd" d="M67.7678 130.826C71.2348 135.655 71.2938 139.612 69.7268 143.266C75.2608 139.035 72.0968 133.138 67.7678 130.826Z" fill="#CFCFCE"/>
<path fill-rule="evenodd" clip-rule="evenodd" d="M72.3418 127.74C75.9558 130.669 77.1218 133.74 77.1998 136.967C79.5308 132.344 75.7898 128.504 72.3418 127.74Z" fill="#CFCFCE"/>
<path fill-rule="evenodd" clip-rule="evenodd" d="M36.5308 126.114C32.8868 129.043 31.7218 132.114 31.6728 135.341C29.3518 130.718 33.0838 126.888 36.5308 126.114Z" fill="#CFCFCE"/>
<path fill-rule="evenodd" clip-rule="evenodd" d="M73.0468 96.6989C74.2826 96.6996 75.4676 97.1912 76.3411 98.0654C77.2146 98.9397 77.7051 100.125 77.7048 101.361C77.707 101.955 77.5939 102.544 77.3718 103.095C76.9635 102.298 76.3345 101.636 75.5601 101.187C74.7857 100.738 73.8985 100.521 73.0042 100.562C72.11 100.604 71.2465 100.901 70.5168 101.42C69.7871 101.938 69.222 102.656 68.8888 103.487C68.5542 102.825 68.3799 102.094 68.3798 101.352C68.3814 100.117 68.8734 98.9328 69.7476 98.0603C70.6218 97.1877 71.8067 96.6981 73.0418 96.6989" fill="#21292B"/>
<path fill-rule="evenodd" clip-rule="evenodd" d="M39.7338 96.5619C40.2199 96.5625 40.6981 96.684 41.1255 96.9154C41.5529 97.1468 41.9161 97.4809 42.1823 97.8875C42.4485 98.2942 42.6094 98.7606 42.6505 99.2449C42.6917 99.7292 42.6117 100.216 42.4178 100.662C42.189 100.138 41.8124 99.6919 41.3339 99.3787C40.8555 99.0656 40.2961 98.8988 39.7243 98.8988C39.1525 98.8988 38.5931 99.0656 38.1147 99.3787C37.6363 99.6919 37.2596 100.138 37.0308 100.662C36.8364 100.215 36.7566 99.7265 36.7984 99.2409C36.8403 98.7553 37.0027 98.2879 37.2707 97.8808C37.5388 97.4737 37.9041 97.14 38.3337 96.9097C38.7632 96.6794 39.2434 96.5598 39.7308 96.5619" fill="#21292B"/>
</svg>
