<svg width="41" height="43" viewBox="0 0 41 43" fill="none" xmlns="http://www.w3.org/2000/svg">
<path d="M19.4531 26.0156C19.4531 24.5573 19.6302 23.3958 19.9844 22.5312C20.3385 21.6667 20.9844 20.8177 21.9219 19.9844C22.8698 19.1406 23.5 18.4583 23.8125 17.9375C24.125 17.4062 24.2812 16.849 24.2812 16.2656C24.2812 14.5052 23.4688 13.625 21.8438 13.625C21.0729 13.625 20.4531 13.8646 19.9844 14.3438C19.526 14.8125 19.2865 15.4635 19.2656 16.2969H14.7344C14.7552 14.3073 15.3958 12.75 16.6562 11.625C17.9271 10.5 19.6562 9.9375 21.8438 9.9375C24.0521 9.9375 25.7656 10.474 26.9844 11.5469C28.2031 12.6094 28.8125 14.1146 28.8125 16.0625C28.8125 16.9479 28.6146 17.7865 28.2188 18.5781C27.8229 19.3594 27.1302 20.2292 26.1406 21.1875L24.875 22.3906C24.0833 23.151 23.6302 24.0417 23.5156 25.0625L23.4531 26.0156H19.4531ZM19 30.8125C19 30.1146 19.2344 29.5417 19.7031 29.0938C20.1823 28.6354 20.7917 28.4062 21.5312 28.4062C22.2708 28.4062 22.875 28.6354 23.3438 29.0938C23.8229 29.5417 24.0625 30.1146 24.0625 30.8125C24.0625 31.5 23.8281 32.0677 23.3594 32.5156C22.901 32.9635 22.2917 33.1875 21.5312 33.1875C20.7708 33.1875 20.1562 32.9635 19.6875 32.5156C19.2292 32.0677 19 31.5 19 30.8125Z" fill="white"/>
<g clip-path="url(#clip0)">
<path opacity="0.9" d="M34.0023 21L35.486 25.9047C35.5368 26.049 35.6192 26.18 35.727 26.2882C35.8349 26.3963 35.9655 26.4789 36.1094 26.5299L41 28.0225L36.1094 29.5151C35.9652 29.5654 35.8342 29.6477 35.7262 29.756C35.6183 29.8643 35.5362 29.9956 35.486 30.1403L34.0023 35.0005L32.514 30.1403C32.4646 29.9952 32.3827 29.8635 32.2746 29.7551C32.1666 29.6468 32.0352 29.5647 31.8906 29.5151L27 28.0225L31.8906 26.5299C32.0352 26.4803 32.1666 26.3982 32.2746 26.2899C32.3827 26.1815 32.4646 26.0498 32.514 25.9047L34.0023 21Z" fill="white"/>
</g>
<g opacity="0.17" clip-path="url(#clip1)">
<path opacity="0.9" d="M7.00229 16L8.48604 20.5544C8.53684 20.6883 8.61918 20.81 8.72705 20.9104C8.83491 21.0109 8.96555 21.0876 9.10938 21.1349L14 22.5209L9.10938 23.9069C8.96517 23.9536 8.83418 24.03 8.72623 24.1306C8.61828 24.2311 8.53616 24.3531 8.48604 24.4874L7.00229 29.0004L5.51396 24.4874C5.46456 24.3527 5.3827 24.2304 5.27465 24.1298C5.16659 24.0291 5.03523 23.9529 4.89062 23.9069L0 22.5209L4.89062 21.1349C5.03523 21.0889 5.16659 21.0126 5.27465 20.912C5.3827 20.8114 5.46456 20.6891 5.51396 20.5544L7.00229 16Z" fill="white"/>
</g>
<g opacity="0.8" clip-path="url(#clip2)">
<path opacity="0.9" d="M29.0016 0L30.0615 3.15304C30.0977 3.24577 30.1566 3.33 30.2336 3.39954C30.3106 3.46908 30.404 3.52217 30.5067 3.55492L34 4.51446L30.5067 5.474C30.4037 5.50631 30.3101 5.55925 30.233 5.62885C30.1559 5.69845 30.0973 5.7829 30.0615 5.87588L29.0016 9.0003L27.9385 5.87588C27.9033 5.78265 27.8448 5.69795 27.7676 5.62829C27.6904 5.55863 27.5966 5.50585 27.4933 5.474L24 4.51446L27.4933 3.55492C27.5966 3.52307 27.6904 3.47029 27.7676 3.40063C27.8448 3.33096 27.9033 3.24627 27.9385 3.15304L29.0016 0Z" fill="white"/>
</g>
<defs>
<clipPath id="clip0">
<rect width="14" height="14" fill="white" transform="translate(27 21)"/>
</clipPath>
<clipPath id="clip1">
<rect width="14" height="13" fill="white" transform="translate(0 16)"/>
</clipPath>
<clipPath id="clip2">
<rect width="10" height="9" fill="white" transform="translate(24)"/>
</clipPath>
</defs>
</svg>
