<svg width="44" height="43" viewBox="0 0 44 43" fill="none" xmlns="http://www.w3.org/2000/svg">
<g clip-path="url(#clip0)">
<path opacity="0.9" d="M22.0072 0L26.6704 15.0645C26.8301 15.5076 27.0889 15.91 27.4279 16.2422C27.7669 16.5745 28.1774 16.8281 28.6295 16.9846L44 21.5691L28.6295 26.1536C28.1763 26.3079 27.7646 26.5609 27.4253 26.8934C27.086 27.2259 26.8279 27.6294 26.6704 28.0736L22.0072 43.0014L17.3296 28.0736C17.1743 27.6282 16.9171 27.2236 16.5775 26.8907C16.2379 26.5579 15.825 26.3057 15.3705 26.1536L0 21.5691L15.3705 16.9846C15.825 16.8324 16.2379 16.5803 16.5775 16.2474C16.9171 15.9146 17.1743 15.51 17.3296 15.0645L22.0072 0Z" fill="white"/>
</g>
<defs>
<clipPath id="clip0">
<rect width="44" height="43" fill="white"/>
</clipPath>
</defs>
</svg>
